<svg width="20" height="18" viewBox="0 0 20 18" fill="none" xmlns="http://www.w3.org/2000/svg">
<path d="M19.703 6.22904C19.4389 5.89772 19.0427 5.70764 18.6159 5.70764H14.7642L12.6756 0.9251C12.5461 0.628576 12.2007 0.493068 11.9041 0.622639C11.6076 0.752131 11.4721 1.09756 11.6017 1.39412L13.4854 5.70768H6.51443L8.39822 1.39412C8.52771 1.09756 8.39232 0.75217 8.09576 0.622639C7.79924 0.493068 7.45381 0.628498 7.32432 0.9251L5.23568 5.70768H1.38396C0.957168 5.70768 0.560957 5.89772 0.296855 6.22908C0.0375977 6.5544 -0.0580664 6.9726 0.0343946 7.37658L2.09131 16.361C2.23494 16.9883 2.7899 17.4264 3.44088 17.4264H16.559C17.21 17.4264 17.7649 16.9883 17.9086 16.361L19.9655 7.37654C20.0579 6.97256 19.9623 6.55436 19.703 6.22904ZM16.559 16.2545H3.44088C3.34139 16.2545 3.25424 16.1893 3.23365 16.0994L1.17674 7.11506C1.16061 7.04455 1.18768 6.99151 1.2133 6.95944C1.23705 6.92959 1.29084 6.87955 1.38396 6.87955H4.72393L4.57045 7.231C4.44096 7.52756 4.57635 7.87295 4.87291 8.00248C4.94924 8.03584 5.02877 8.05162 5.10709 8.05162C5.33295 8.05162 5.54818 7.92026 5.64436 7.70006L6.00268 6.87963H13.9973L14.3556 7.70006C14.4518 7.9203 14.667 8.05162 14.8929 8.05162C14.9712 8.05162 15.0507 8.03584 15.1271 8.00248C15.4236 7.87299 15.559 7.52756 15.4295 7.231L15.276 6.87955H18.616C18.7091 6.87955 18.7629 6.92959 18.7867 6.95944C18.8122 6.99154 18.8394 7.04459 18.8232 7.11502L16.7663 16.0994C16.7457 16.1893 16.6585 16.2545 16.559 16.2545Z" fill="#6F73EE"/>
<path d="M19.703 6.22904C19.4389 5.89772 19.0427 5.70764 18.6159 5.70764H14.7642L12.6756 0.9251C12.5461 0.628576 12.2007 0.493068 11.9041 0.622639C11.6076 0.752131 11.4721 1.09756 11.6017 1.39412L13.4854 5.70768H6.51443L8.39822 1.39412C8.52771 1.09756 8.39232 0.75217 8.09576 0.622639C7.79924 0.493068 7.45381 0.628498 7.32432 0.9251L5.23568 5.70768H1.38396C0.957168 5.70768 0.560957 5.89772 0.296855 6.22908C0.0375977 6.5544 -0.0580664 6.9726 0.0343946 7.37658L2.09131 16.361C2.23494 16.9883 2.7899 17.4264 3.44088 17.4264H16.559C17.21 17.4264 17.7649 16.9883 17.9086 16.361L19.9655 7.37654C20.0579 6.97256 19.9623 6.55436 19.703 6.22904ZM16.559 16.2545H3.44088C3.34139 16.2545 3.25424 16.1893 3.23365 16.0994L1.17674 7.11506C1.16061 7.04455 1.18768 6.99151 1.2133 6.95944C1.23705 6.92959 1.29084 6.87955 1.38396 6.87955H4.72393L4.57045 7.231C4.44096 7.52756 4.57635 7.87295 4.87291 8.00248C4.94924 8.03584 5.02877 8.05162 5.10709 8.05162C5.33295 8.05162 5.54818 7.92026 5.64436 7.70006L6.00268 6.87963H13.9973L14.3556 7.70006C14.4518 7.9203 14.667 8.05162 14.8929 8.05162C14.9712 8.05162 15.0507 8.03584 15.1271 8.00248C15.4236 7.87299 15.559 7.52756 15.4295 7.231L15.276 6.87955H18.616C18.7091 6.87955 18.7629 6.92959 18.7867 6.95944C18.8122 6.99154 18.8394 7.04459 18.8232 7.11502L16.7663 16.0994C16.7457 16.1893 16.6585 16.2545 16.559 16.2545Z" stroke="#6F73EE"/>
</svg>
