<svg width="12" height="18" viewBox="0 0 12 18" fill="none" xmlns="http://www.w3.org/2000/svg">
<path d="M11.2233 0.260732C11.14 0.101188 10.9749 0 10.7948 0H3.72922C3.51554 0 3.32724 0.141421 3.26611 0.346092L0.742154 8.80412C0.698478 8.95043 0.726508 9.10792 0.817728 9.23032C0.908948 9.35277 1.05266 9.42405 1.20526 9.42405H5.16693L3.57094 17.4212C3.52449 17.6538 3.65364 17.8862 3.87583 17.9691C3.93123 17.9898 3.98838 18 4.04474 18C4.21425 18 4.37676 17.9106 4.46484 17.7559L10.6889 6.82597C10.7741 6.67634 10.7733 6.49172 10.6868 6.34287C10.6003 6.19402 10.4411 6.10147 10.269 6.10147H7.4664L11.1912 0.760267C11.2942 0.612563 11.3066 0.420397 11.2233 0.260732Z" fill="#5D6C7B"/>
</svg>
