<svg width="18" height="16" viewBox="0 0 18 16" fill="none" xmlns="http://www.w3.org/2000/svg">
<path d="M8.47256 3.56443V0.236084C6.43975 0.352768 4.53344 1.14269 3.01184 2.49878L5.36506 4.85199C6.25065 4.11477 7.32597 3.6692 8.47256 3.56443Z" fill="#5D6C7B"/>
<path d="M4.61919 5.59756L2.266 3.24438C0.908759 4.76556 0.117849 6.672 0.000427246 8.7053H3.32892C3.43438 7.55847 3.88087 6.48308 4.61919 5.59756Z" fill="#5D6C7B"/>
<path d="M14.671 8.7053H17.9995C17.8821 6.672 17.0912 4.76556 15.7339 3.24438L13.3807 5.59756C14.1191 6.48304 14.5655 7.55847 14.671 8.7053Z" fill="#5D6C7B"/>
<path d="M14.6704 9.76001C14.4959 11.6759 13.4442 12.8449 13.0266 13.2625C12.8203 13.4687 12.8203 13.8032 13.0266 14.0095L14.6267 15.6097C14.7298 15.7128 14.865 15.7644 15.0002 15.7644C15.1354 15.7644 15.2705 15.7128 15.3737 15.6097C16.9531 14.0305 17.874 11.9698 18 9.76001H14.6704Z" fill="#5D6C7B"/>
<path d="M3.27189 12.7858C3.41919 12.5543 3.64215 12.2058 3.90962 11.7933C3.63544 11.2499 3.40358 10.5723 3.32965 9.76001H0C0.126035 11.9698 1.04695 14.0305 2.62628 15.6097C2.72943 15.7128 2.8646 15.7644 2.99978 15.7644C3.13495 15.7644 3.27016 15.7128 3.37331 15.6097L3.92119 15.0618C3.76249 14.9854 3.61607 14.8821 3.48785 14.7539C2.95952 14.2255 2.87068 13.4162 3.27189 12.7858Z" fill="#5D6C7B"/>
<path d="M9.52734 0.236084V3.56443C10.6739 3.6692 11.7493 4.11473 12.6348 4.85199L14.9881 2.49878C13.4665 1.14266 11.5601 0.352768 9.52734 0.236084Z" fill="#5D6C7B"/>
<path d="M7.82841 8.06998C7.01222 8.88617 4.45108 12.8973 4.16175 13.352C4.02903 13.5605 4.05899 13.8332 4.23375 14.008C4.40851 14.1828 4.68122 14.2127 4.88976 14.08C5.34444 13.7907 9.35564 11.2296 10.1718 10.4134C10.8179 9.76732 10.8179 8.71608 10.1718 8.07002C9.52576 7.42395 8.47448 7.42392 7.82841 8.06998Z" fill="#5D6C7B"/>
</svg>
