<svg width="16" height="18" viewBox="0 0 16 18" fill="none" xmlns="http://www.w3.org/2000/svg">
<path d="M13.4525 5.35819L14.5303 4.28044L13.4698 3.21956L12.3168 4.3725C11.2636 3.62609 10.0345 3.16607 8.75004 3.0375V1.5H10.25V0H5.75003V1.5H7.25004V3.0375C5.96554 3.16607 4.73647 3.62609 3.68322 4.3725L2.53028 3.21956L1.46978 4.28044L2.54753 5.35819C1.54152 6.42334 0.869515 7.75982 0.614509 9.20259C0.359502 10.6454 0.532663 12.1312 1.11261 13.4767C1.69255 14.8222 2.65387 15.9683 3.87786 16.7736C5.10185 17.5788 6.5349 18.008 8.00004 18.008C9.46517 18.008 10.8982 17.5788 12.1222 16.7736C13.3462 15.9683 14.3075 14.8222 14.8875 13.4767C15.4674 12.1312 15.6406 10.6454 15.3856 9.20259C15.1306 7.75982 14.4586 6.42334 13.4525 5.35819ZM8.00004 16.5C6.81335 16.5 5.65331 16.1481 4.66661 15.4888C3.67992 14.8295 2.91088 13.8925 2.45676 12.7961C2.00263 11.6997 1.88381 10.4933 2.11532 9.32946C2.34683 8.16557 2.91828 7.09647 3.75739 6.25736C4.59651 5.41824 5.66561 4.8468 6.82949 4.61529C7.99338 4.38378 9.19978 4.5026 10.2961 4.95672C11.3925 5.41085 12.3296 6.17988 12.9889 7.16658C13.6481 8.15327 14 9.31331 14 10.5C13.9982 12.0908 13.3655 13.6158 12.2407 14.7407C11.1159 15.8655 9.59079 16.4982 8.00004 16.5Z" fill="#5D6C7B"/>
<path d="M8 6.00024V10.5002H3.5C3.5 11.3903 3.76392 12.2603 4.25839 13.0003C4.75285 13.7403 5.45566 14.3171 6.27792 14.6577C7.10019 14.9983 8.00499 15.0874 8.87791 14.9138C9.75082 14.7401 10.5526 14.3116 11.182 13.6822C11.8113 13.0529 12.2399 12.2511 12.4135 11.3782C12.5872 10.5052 12.4981 9.60044 12.1575 8.77817C11.8169 7.9559 11.2401 7.2531 10.5001 6.75863C9.76005 6.26416 8.89002 6.00024 8 6.00024Z" fill="#5D6C7B"/>
</svg>
