<svg width="22" height="22" viewBox="0 0 22 22" fill="none" xmlns="http://www.w3.org/2000/svg">
<path d="M15.0167 7.58398H14.009C13.7899 7.58398 13.5815 7.68926 13.4526 7.86973L10.0752 12.5533L8.54554 10.4307C8.41663 10.2523 8.21038 10.1449 7.98909 10.1449H6.98147C6.84182 10.1449 6.76018 10.3039 6.84182 10.4178L9.51879 14.1303C9.58203 14.2185 9.66539 14.2905 9.76198 14.3401C9.85856 14.3897 9.96558 14.4156 10.0742 14.4156C10.1827 14.4156 10.2898 14.3897 10.3863 14.3401C10.4829 14.2905 10.5663 14.2185 10.6295 14.1303L15.1542 7.85684C15.2379 7.74297 15.1563 7.58398 15.0167 7.58398V7.58398Z" fill="#6F73EE"/>
<path d="M11 1.375C5.68477 1.375 1.375 5.68477 1.375 11C1.375 16.3152 5.68477 20.625 11 20.625C16.3152 20.625 20.625 16.3152 20.625 11C20.625 5.68477 16.3152 1.375 11 1.375ZM11 18.9922C6.58711 18.9922 3.00781 15.4129 3.00781 11C3.00781 6.58711 6.58711 3.00781 11 3.00781C15.4129 3.00781 18.9922 6.58711 18.9922 11C18.9922 15.4129 15.4129 18.9922 11 18.9922Z" fill="#6F73EE"/>
</svg>
