<svg width="40" height="40" viewBox="0 0 40 40" fill="none" xmlns="http://www.w3.org/2000/svg">
<rect opacity="0.2" width="40" height="40" rx="5" fill="white"/>
<g clip-path="url(#clip0_39_1632)">
<path d="M24.9407 22.847L22.3157 13.8626L24.0813 13.672C24.4469 13.6313 24.7125 13.3032 24.6719 12.9376C24.6313 12.572 24.3063 12.3032 23.9375 12.347L18.8407 12.897C18.475 12.9376 18.2094 13.2657 18.25 13.6313C18.2875 13.972 18.575 14.2251 18.9125 14.2251C18.9375 14.2251 18.9594 14.2251 18.9844 14.222L20.9719 14.0095L23.6469 23.1845C23.1188 23.4938 22.7219 23.9938 22.5469 24.5876H17.4532C17.1594 23.5845 16.225 22.847 15.1125 22.847C13.7657 22.847 12.675 23.9251 12.675 25.2532C12.675 26.5813 13.7657 27.6595 15.1125 27.6595C16.225 27.6595 17.1594 26.9251 17.4532 25.9188H22.5438C22.8375 26.922 23.7719 27.6595 24.8844 27.6595C26.2313 27.6595 27.3219 26.5813 27.3219 25.2532C27.3219 23.9407 26.2625 22.8751 24.9407 22.847V22.847Z" fill="white"/>
</g>
<defs>
<clipPath id="clip0_39_1632">
<rect width="16" height="16" fill="white" transform="translate(12 12)"/>
</clipPath>
</defs>
</svg>
