<svg width="18" height="16" viewBox="0 0 18 16" fill="none" xmlns="http://www.w3.org/2000/svg">
<path d="M16.9935 3.51484C16.7329 2.90528 16.357 2.35291 15.887 1.88864C15.4167 1.42298 14.8621 1.05293 14.2535 0.798611C13.6224 0.533848 12.9455 0.398328 12.2622 0.399916C11.3035 0.399916 10.3681 0.665058 9.5552 1.16588C9.36073 1.28569 9.17599 1.41727 9.00097 1.56065C8.82595 1.41727 8.6412 1.28569 8.44674 1.16588C7.63387 0.665058 6.69848 0.399916 5.73976 0.399916C5.0494 0.399916 4.38044 0.533469 3.74842 0.798611C3.1378 1.05393 2.58746 1.4212 2.1149 1.88864C1.64429 2.35239 1.26835 2.90489 1.00839 3.51484C0.738077 4.14922 0.600006 4.82287 0.600006 5.51617C0.600006 6.17019 0.732244 6.8517 0.994774 7.54499C1.21452 8.12438 1.52956 8.72537 1.9321 9.33225C2.56995 10.2926 3.447 11.2943 4.53601 12.3097C6.34066 13.9929 8.12781 15.1555 8.20365 15.2027L8.66454 15.5012C8.86873 15.6328 9.13126 15.6328 9.33545 15.5012L9.79634 15.2027C9.87218 15.1536 11.6574 13.9929 13.464 12.3097C14.553 11.2943 15.43 10.2926 16.0679 9.33225C16.4704 8.72537 16.7874 8.12438 17.0052 7.54499C17.2677 6.8517 17.4 6.17019 17.4 5.51617C17.4019 4.82287 17.2639 4.14922 16.9935 3.51484V3.51484ZM9.00097 13.9477C9.00097 13.9477 2.07795 9.46776 2.07795 5.51617C2.07795 3.51484 3.71731 1.89257 5.73976 1.89257C7.16131 1.89257 8.39423 2.69388 9.00097 3.86443C9.6077 2.69388 10.8406 1.89257 12.2622 1.89257C14.2846 1.89257 15.924 3.51484 15.924 5.51617C15.924 9.46776 9.00097 13.9477 9.00097 13.9477Z" fill="#282739"/>
</svg>
